<?xml version="1.0" standalone="no"?>
<!DOCTYPE svg PUBLIC "-//W3C//DTD SVG 20010904//EN"
 "http://www.w3.org/TR/2001/REC-SVG-20010904/DTD/svg10.dtd">
<svg version="1.0" xmlns="http://www.w3.org/2000/svg"
 width="550.000000pt" height="287.000000pt" viewBox="0 0 550.000000 287.000000"
 preserveAspectRatio="xMidYMid meet">

<g transform="translate(0.000000,287.000000) scale(0.100000,-0.100000)"
fill="#000000" stroke="none">
<path d="M3830 490 c0 -82 3 -100 15 -100 12 0 15 18 15 100 0 82 -3 100 -15
100 -12 0 -15 -18 -15 -100z"/>
<path d="M1100 486 c0 -79 3 -96 15 -96 10 0 15 11 15 35 0 19 4 35 8 35 4 0
14 -16 21 -35 8 -24 19 -35 32 -35 19 0 19 1 1 37 -18 34 -18 38 -3 65 14 25
15 30 1 55 -12 22 -24 29 -53 31 l-37 3 0 -95z m58 37 c-4 -39 -28 -42 -28 -4
0 21 5 31 16 31 11 0 14 -8 12 -27z"/>
<path d="M1236 564 c-24 -23 -19 -49 15 -88 33 -39 30 -61 -8 -53 -18 3 -23 0
-21 -12 4 -22 52 -26 72 -6 24 25 19 56 -15 91 -32 33 -31 60 1 51 23 -6 35
19 14 27 -25 10 -42 7 -58 -10z"/>
<path d="M1346 564 c-24 -23 -19 -49 15 -88 33 -39 30 -61 -8 -53 -18 3 -23 0
-21 -12 4 -22 52 -26 72 -6 24 25 19 56 -15 91 -32 33 -31 60 1 51 23 -6 35
19 14 27 -25 10 -42 7 -58 -10z"/>
<path d="M3590 565 c0 -8 9 -15 20 -15 18 0 20 -7 20 -80 0 -64 3 -80 15 -80
12 0 15 16 15 80 0 73 2 80 20 80 11 0 20 7 20 15 0 12 -13 15 -55 15 -42 0
-55 -3 -55 -15z"/>
<path d="M4600 485 l0 -95 31 0 c46 0 69 16 69 50 0 16 -5 32 -10 35 -7 4 -7
12 0 25 24 44 -2 80 -56 80 l-34 0 0 -95z m63 53 c6 -19 -3 -38 -19 -38 -8 0
-14 10 -14 25 0 26 25 35 33 13z m2 -93 c0 -11 -8 -21 -17 -23 -14 -3 -18 3
-18 23 0 20 4 26 18 23 9 -2 17 -12 17 -23z"/>
<path d="M4864 538 c-6 -13 -8 -49 -6 -80 3 -45 8 -58 23 -63 20 -7 39 1 39
16 0 5 -7 9 -15 9 -11 0 -15 11 -15 39 0 25 5 41 15 45 8 3 15 10 15 16 0 5
-7 10 -15 10 -8 0 -15 7 -15 15 0 22 -15 18 -26 -7z"/>
<path d="M3716 508 c-34 -48 -7 -122 42 -116 34 4 42 28 9 28 -24 0 -42 21
-30 34 4 3 19 6 35 6 32 0 39 28 12 54 -22 22 -50 20 -68 -6z m54 -18 c0 -5
-9 -10 -21 -10 -11 0 -17 5 -14 10 3 6 13 10 21 10 8 0 14 -4 14 -10z"/>
<path d="M3896 508 c-34 -48 -7 -122 42 -116 34 4 42 28 9 28 -24 0 -42 21
-30 34 4 3 19 6 35 6 32 0 39 28 12 54 -22 22 -50 20 -68 -6z m54 -18 c0 -5
-9 -10 -21 -10 -11 0 -17 5 -14 10 3 6 13 10 21 10 8 0 14 -4 14 -10z"/>
<path d="M4010 510 c-6 -12 -8 -31 -4 -43 11 -33 9 -63 -4 -80 -29 -35 26 -70
74 -48 21 9 25 17 22 44 -3 28 -7 32 -35 35 -34 3 -47 22 -15 22 25 0 42 19
42 47 0 13 5 23 10 23 6 0 10 5 10 10 0 6 -20 10 -45 10 -34 0 -47 -5 -55 -20z
m46 -36 c-5 -13 -10 -14 -18 -6 -6 6 -8 18 -4 28 5 13 10 14 18 6 6 -6 8 -18
4 -28z m14 -98 c0 -8 -6 -16 -13 -19 -19 -7 -41 8 -33 22 10 16 46 14 46 -3z"/>
<path d="M4130 460 c0 -56 3 -70 15 -70 11 0 15 12 15 50 0 36 4 52 15 56 8 4
15 12 15 20 0 17 -12 18 -28 2 -9 -9 -12 -9 -12 0 0 7 -4 12 -10 12 -6 0 -10
-30 -10 -70z"/>
<path d="M4233 523 c-21 -8 -14 -23 10 -23 38 0 40 -13 5 -24 -27 -9 -34 -17
-36 -44 -4 -37 19 -53 49 -33 12 7 19 7 19 1 0 -5 7 -10 15 -10 11 0 15 13 15
54 0 72 -27 100 -77 79z m40 -69 c9 -10 -4 -34 -19 -34 -8 0 -14 6 -14 13 0
22 19 35 33 21z"/>
<path d="M4340 460 c0 -56 3 -70 15 -70 11 0 15 12 15 49 0 51 15 75 31 50 5
-8 9 -33 9 -56 0 -32 4 -43 15 -43 11 0 15 12 15 49 0 51 15 75 31 50 5 -8 9
-33 9 -56 0 -32 4 -43 15 -43 11 0 15 12 15 51 0 28 -5 59 -10 70 -11 20 -45
26 -55 9 -4 -6 -13 -5 -25 3 -16 9 -24 9 -40 -1 -12 -7 -20 -8 -20 -2 0 5 -4
10 -10 10 -6 0 -10 -30 -10 -70z"/>
<path d="M4736 508 c-32 -46 -8 -118 39 -118 50 0 73 82 35 120 -26 26 -55 25
-74 -2z m54 -48 c0 -43 -23 -57 -35 -20 -9 27 3 60 21 60 10 0 14 -12 14 -40z"/>
</g>
</svg>
